<?xml version="1.0" encoding="UTF-8"?>
<svg version="1.1" xmlns="http://www.w3.org/2000/svg" width="500" height="500">
<path d="M0 0 C165 0 330 0 500 0 C500 165 500 330 500 500 C335 500 170 500 0 500 C0 335 0 170 0 0 Z " fill="#FEFEFE" transform="translate(0,0)"/>
<path d="M0 0 C24.09 0 48.18 0 73 0 C73.33 28.71 73.66 57.42 74 87 C79.300625 81.06 84.60125 75.12 90.0625 69 C108.73049294 49.24025631 108.73049294 49.24025631 121.48182678 48.4786377 C128.07892296 48.44811456 134.60884476 49.39466474 141 51 C136.12275563 56.8797505 130.86113122 62.26880817 125.4453125 67.65234375 C124.54376434 68.55247696 123.64221619 69.45261017 122.71334839 70.38002014 C120.33801783 72.75072823 117.96054595 75.11924515 115.58197021 77.48669434 C113.14655283 79.91180728 110.71403088 82.33982085 108.28125 84.76757812 C103.52347231 89.51437128 98.7628462 94.25829281 94 99 C95.51693715 102.57418334 97.61134741 104.84829363 100.35791016 107.5690918 C101.25869293 108.46649582 102.15947571 109.36389984 103.08755493 110.28849792 C104.07135838 111.25877106 105.05519502 112.22901055 106.0390625 113.19921875 C107.04562283 114.1995067 108.05166842 115.20031285 109.05722046 116.20161438 C111.6997972 118.83091078 114.34789104 121.45457345 116.99761963 124.07666016 C121.24721324 128.28306133 125.49001641 132.49628624 129.72968674 136.71268654 C131.21422175 138.18696327 132.70210205 139.65780231 134.19033813 141.12834167 C135.53205582 142.46026299 135.53205582 142.46026299 136.90087891 143.8190918 C137.69426666 144.60422653 138.48765442 145.38936127 139.30508423 146.19828796 C141 148 141 148 141 149 C131.00341449 151.51094999 119.75407504 153.18424764 110 149 C95.94885519 139.97578977 84.77947035 125.51088786 74 113 C73.67 124.88 73.34 136.76 73 149 C65.74 149 58.48 149 51 149 C51 107.09 51 65.18 51 22 C41.43 22 31.86 22 22 22 C22 73.48 22 124.96 22 178 C73.48 178 124.96 178 178 178 C178 126.52 178 75.04 178 22 C152.92 22 127.84 22 102 22 C102 14.74 102 7.48 102 0 C134.34 0 166.68 0 200 0 C200 66 200 132 200 200 C134 200 68 200 0 200 C0 134 0 68 0 0 Z " fill="#000000" transform="translate(150,95)"/>
<path d="M0 0 C1.32 0 2.64 0 4 0 C4.33 5.61 4.66 11.22 5 17 C7.31 15.68 9.62 14.36 12 13 C16.90548933 11.828178 21.02078914 12.65628229 25.375 15.125 C28.88902062 17.63101471 30.70436979 19.78920182 32 24 C32.71763739 29.70009128 32.31044446 34.14468146 29 39 C25.06366868 42.96859633 21.8393193 44.84923612 16.1875 45.3125 C10.88735522 45.26369572 7.66158373 42.66158373 4 39 C3.505 41.475 3.505 41.475 3 44 C2.01 44 1.02 44 0 44 C0 29.48 0 14.96 0 0 Z " fill="#FAFAFA" transform="translate(253,315)"/>
<path d="M0 0 C4.11135991 2.05567996 6.34000536 3.73685347 8 8 C8.22705078 10.56542969 8.22705078 10.56542969 8.1953125 13.421875 C8.18886719 14.44667969 8.18242187 15.47148437 8.17578125 16.52734375 C8.15902344 17.59082031 8.14226562 18.65429688 8.125 19.75 C8.11597656 20.82894531 8.10695312 21.90789062 8.09765625 23.01953125 C8.07411305 25.67991278 8.04122799 28.33984336 8 31 C7.01 31 6.02 31 5 31 C4.67 29.68 4.34 28.36 4 27 C3.31035156 27.65097656 2.62070313 28.30195313 1.91015625 28.97265625 C-1.56178181 31.39136209 -3.3783645 31.51022541 -7.5625 31.4375 C-8.67753906 31.43621094 -9.79257813 31.43492187 -10.94140625 31.43359375 C-14.28424493 30.95970474 -15.68382285 30.4303549 -18 28 C-18.78515625 25.9140625 -18.78515625 25.9140625 -19.0625 23.625 C-19.17722656 22.87476563 -19.29195312 22.12453125 -19.41015625 21.3515625 C-18.74044537 17.51188676 -17.12886603 16.24445038 -14 14 C-10.70253981 13.40693426 -7.52399271 13.52577589 -4.1875 13.6875 C-3.30384766 13.71005859 -2.42019531 13.73261719 -1.50976562 13.75585938 C0.6608891 13.81452572 2.8306669 13.90420021 5 14 C3.90092305 8.96315571 3.90092305 8.96315571 0.8125 5.0625 C-2.78710432 3.70264948 -5.17950672 3.45421525 -9 4 C-11.75041666 6.41666771 -11.75041666 6.41666771 -14 9 C-14.99 9 -15.98 9 -17 9 C-16.76346394 5.80676321 -15.72817004 4.69332005 -13.5625 2.25 C-9.42283785 -0.97195391 -5.01335137 -0.88710276 0 0 Z " fill="#141414" transform="translate(234,328)"/>
<path d="M0 0 C1.32 0 2.64 0 4 0 C4.33 5.61 4.66 11.22 5 17 C7.31 15.68 9.62 14.36 12 13 C16.90548933 11.828178 21.02078914 12.65628229 25.375 15.125 C28.88902062 17.63101471 30.70436979 19.78920182 32 24 C32.71763739 29.70009128 32.31044446 34.14468146 29 39 C25.06366868 42.96859633 21.8393193 44.84923612 16.1875 45.3125 C10.88735522 45.26369572 7.66158373 42.66158373 4 39 C3.505 41.475 3.505 41.475 3 44 C2.01 44 1.02 44 0 44 C0 29.48 0 14.96 0 0 Z M6 20 C3.028295 24.4575575 3.24705751 28.77413182 4 34 C5.65233922 37.17568542 7.75392971 39.37696485 11 41 C15.59698532 41.42308538 19.70653278 41.53894467 24 39.75 C26.85342707 37.25325132 27.85323218 35.14513032 28.3359375 31.37890625 C28.44321741 25.41209682 28.44321741 25.41209682 26.3125 19.9375 C22.74910294 16.95195111 20.17486307 16.12816688 15.5625 15.625 C11.30800938 16.07284112 9.2916215 17.3207732 6 20 Z " fill="#1E1E1E" transform="translate(253,315)"/>
<path d="M0 0 C1.32 0 2.64 0 4 0 C4 5.94 4 11.88 4 18 C5.8975 17.9175 7.795 17.835 9.75 17.75 C11.35101563 17.68039062 11.35101563 17.68039062 12.984375 17.609375 C16.6787369 16.86284591 17.75246832 15.9967089 20 13 C21.54322729 9.75769506 21.54322729 9.75769506 22.75 6.25 C23.17796875 5.07953125 23.6059375 3.9090625 24.046875 2.703125 C24.36140625 1.81109375 24.6759375 0.9190625 25 0 C26.32 0 27.64 0 29 0 C27.27096377 6.39219456 25.34074874 12.2580881 22 18 C21.01 18.33 20.02 18.66 19 19 C22.96 25.93 26.92 32.86 31 40 C29.02 40.495 29.02 40.495 27 41 C26.37351563 39.95199219 25.74703125 38.90398437 25.1015625 37.82421875 C24.27608079 36.44528908 23.4505578 35.06638412 22.625 33.6875 C22.2125 32.99720703 21.8 32.30691406 21.375 31.59570312 C20.97539062 30.92861328 20.57578125 30.26152344 20.1640625 29.57421875 C19.79748535 28.96151123 19.4309082 28.34880371 19.05322266 27.7175293 C18.0740333 26.12072885 17.03902076 24.55853114 16 23 C13.11404054 22.41518879 13.11404054 22.41518879 9.875 22.3125 C7.93625 22.209375 5.9975 22.10625 4 22 C4 28.27 4 34.54 4 41 C2.68 41 1.36 41 0 41 C0 27.47 0 13.94 0 0 Z " fill="#191919" transform="translate(177,318)"/>
<path d="M0 0 C1.57043101 0.01330874 3.14079971 0.03717648 4.7109375 0.0703125 C5.51273438 0.07933594 6.31453125 0.08835937 7.140625 0.09765625 C9.12252273 0.12125027 11.10426731 0.15712185 13.0859375 0.1953125 C12.2578125 6.9609375 12.2578125 6.9609375 10.7109375 9.0703125 C6.65680527 11.87701943 1.81607691 11.80895221 -2.9140625 11.1953125 C-5.5390625 9.5078125 -5.5390625 9.5078125 -6.9140625 7.1953125 C-6.6655169 1.97585491 -5.33133708 0.26603478 0 0 Z " fill="#F9F9F9" transform="translate(224.9140625,344.8046875)"/>
<path d="M0 0 C1.423125 -0.061875 2.84625 -0.12375 4.3125 -0.1875 C5.51326172 -0.23970703 5.51326172 -0.23970703 6.73828125 -0.29296875 C9 0 9 0 10.78125 1.34375 C12.44546615 3.60537707 12.22189312 5.26331821 12 8 C10.02 8.99 10.02 8.99 8 10 C9.32 12.31 10.64 14.62 12 17 C11.01 16.67 10.02 16.34 9 16 C7.8125 13.4375 7.8125 13.4375 7 11 C5.35 11 3.7 11 2 11 C2 12.98 2 14.96 2 17 C1.34 17 0.68 17 0 17 C0 11.39 0 5.78 0 0 Z " fill="#414141" transform="translate(295,381)"/>
<path d="M0 0 C0.99 0 1.98 0 3 0 C3.33 1.32 3.66 2.64 4 4 C4.66 3.34 5.32 2.68 6 2 C10.01858853 -0.67905902 12.25305716 -0.32182663 17 0 C17 0.99 17 1.98 17 3 C16.38511719 3.09796875 15.77023437 3.1959375 15.13671875 3.296875 C10.09506893 4.12596175 10.09506893 4.12596175 6 6.9375 C4.47122749 10.09059331 3.85537387 12.77032636 3.68359375 16.23046875 C3.64169922 17.03291016 3.59980469 17.83535156 3.55664062 18.66210938 C3.51732422 19.49548828 3.47800781 20.32886719 3.4375 21.1875 C3.39431641 22.03248047 3.35113281 22.87746094 3.30664062 23.74804688 C3.20068482 25.83184433 3.0998498 27.91590103 3 30 C2.01 30 1.02 30 0 30 C0 20.1 0 10.2 0 0 Z " fill="#050505" transform="translate(310,329)"/>
<path d="M0 0 C0.99 0 1.98 0 3 0 C3 9.9 3 19.8 3 30 C2.01 30 1.02 30 0 30 C0 20.1 0 10.2 0 0 Z " fill="#070707" transform="translate(295,329)"/>
<path d="M0 0 C3.3 0 6.6 0 10 0 C10 0.66 10 1.32 10 2 C7.36 2 4.72 2 2 2 C2 3.98 2 5.96 2 8 C4.64 8 7.28 8 10 8 C10 8.33 10 8.66 10 9 C7.36 9 4.72 9 2 9 C2 11.31 2 13.62 2 16 C4.64 16 7.28 16 10 16 C10 16.33 10 16.66 10 17 C6.7 17 3.4 17 0 17 C0 11.39 0 5.78 0 0 Z " fill="#3B3B3B" transform="translate(217,381)"/>
<path d="M0 0 C4.29 0 8.58 0 13 0 C13 0.66 13 1.32 13 2 C11.35 2 9.7 2 8 2 C8 6.95 8 11.9 8 17 C7.34 17 6.68 17 6 17 C6 12.05 6 7.1 6 2 C4.02 2 2.04 2 0 2 C0 1.34 0 0.68 0 0 Z " fill="#4E4E4E" transform="translate(256,381)"/>
<path d="M0 0 C2.33294775 -0.04241723 4.66702567 -0.04092937 7 0 C8 1 8 1 8.125 3.5 C8 6 8 6 7 7 C4.66702567 7.04092937 2.33294775 7.04241723 0 7 C0 4.69 0 2.38 0 0 Z " fill="#FCFCFC" transform="translate(297,383)"/>
<path d="M0 0 C0.66 0 1.32 0 2 0 C2 5.61 2 11.22 2 17 C-1.79620155 15.73459948 -2.48678188 14.21781569 -4.6875 10.9375 C-5.31011719 10.01839844 -5.93273437 9.09929687 -6.57421875 8.15234375 C-7.04472656 7.44207031 -7.51523438 6.73179687 -8 6 C-7.67 5.34 -7.34 4.68 -7 4 C-5.02 6.64 -3.04 9.28 -1 12 C-0.67 8.04 -0.34 4.08 0 0 Z " fill="#3E3E3E" transform="translate(247,381)"/>
<path d="M0 0 C0 0.99 0 1.98 0 3 C-0.93972656 3.19916016 -0.93972656 3.19916016 -1.8984375 3.40234375 C-3.12433594 3.66724609 -3.12433594 3.66724609 -4.375 3.9375 C-5.18710937 4.11152344 -5.99921875 4.28554688 -6.8359375 4.46484375 C-9.029463 4.92330693 -9.029463 4.92330693 -11 6 C-11.66 5.34 -12.32 4.68 -13 4 C-8.62340682 -0.37659318 -5.88808394 -0.39919213 0 0 Z " fill="#171717" transform="translate(327,329)"/>
<path d="M0 0 C1.65 0.33 3.3 0.66 5 1 C4.67 2.65 4.34 4.3 4 6 C2.35 5.67 0.7 5.34 -1 5 C-0.67 3.35 -0.34 1.7 0 0 Z " fill="#1C1C1C" transform="translate(294,317)"/>
</svg>
